<?xml version="1.0" encoding="UTF-8" standalone="no"?>
<svg
   xmlns:dc="http://purl.org/dc/elements/1.1/"
   xmlns:cc="http://creativecommons.org/ns#"
   xmlns:rdf="http://www.w3.org/1999/02/22-rdf-syntax-ns#"
   xmlns:svg="http://www.w3.org/2000/svg"
   xmlns="http://www.w3.org/2000/svg"
   xmlns:sodipodi="http://sodipodi.sourceforge.net/DTD/sodipodi-0.dtd"
   xmlns:inkscape="http://www.inkscape.org/namespaces/inkscape"
   version="1"
   width="24"
   height="24"
   viewBox="0 0 24 24"
   id="svg6"
   sodipodi:docname="user-login.svg"
   inkscape:version="0.92.3 (2405546, 2018-03-11)">
  <metadata
     id="metadata12">
    <rdf:RDF>
      <cc:Work
         rdf:about="">
        <dc:format>image/svg+xml</dc:format>
        <dc:type
           rdf:resource="http://purl.org/dc/dcmitype/StillImage" />
      </cc:Work>
    </rdf:RDF>
  </metadata>
  <defs
     id="defs10" />
  <sodipodi:namedview
     pagecolor="#ffffff"
     bordercolor="#666666"
     borderopacity="1"
     objecttolerance="10"
     gridtolerance="10"
     guidetolerance="10"
     inkscape:pageopacity="0"
     inkscape:pageshadow="2"
     inkscape:window-width="1920"
     inkscape:window-height="903"
     id="namedview8"
     showgrid="false"
     inkscape:zoom="8"
     inkscape:cx="19.693133"
     inkscape:cy="25.010478"
     inkscape:window-x="0"
     inkscape:window-y="30"
     inkscape:window-maximized="1"
     inkscape:current-layer="g4" />
  <g
     id="g4">
    <g
       id="g1608"
       transform="matrix(1.1666667,0,0,1.1666667,43.830729,31.999701)">
      <g
         id="g1634"
         transform="matrix(1.0261195,0,0,1.0261195,35.338973,9.3430105)">
        <g
           transform="matrix(0,0,0,0,-60.264735,-14.95221)"
           id="g1596">
          <path
             inkscape:connector-curvature="0"
             d="m -23.531754,0.29237288 c -2.688,0 -4.875,-2.18699998 -4.875,-4.87499998 0,-2.688 2.187,-4.875 4.875,-4.875 2.688,0 4.875,2.187 4.875,4.875 0,2.688 -2.187,4.87499998 -4.875,4.87499998 z m 0,-8.24999998 c -1.861,0 -3.375,1.514 -3.375,3.375 0,1.861 1.514,3.375 3.375,3.375 1.861,0 3.375,-1.514 3.375,-3.375 0,-1.861 -1.514,-3.375 -3.375,-3.375 z"
             id="path1018"
             sodipodi:nodetypes="ssssssssss" />
          <path
             inkscape:connector-curvature="0"
             d="m -30.281754,8.5423729 c -0.412,0 -0.749,-0.335 -0.75,-0.748 -0.009,-2.703 1.448,-5.207 3.801,-6.536 1.124,-0.63500002 2.392,-0.97000002 3.668,-0.97000002 0.677,0 1.355,0.093 2.014,0.276 1.925,0.53500002 3.526,1.78800002 4.508,3.52800002 0.099,0.174 0.124,0.376 0.07,0.569 -0.054,0.193 -0.179,0.354 -0.354,0.453 -0.112,0.063 -0.239,0.097 -0.368,0.097 -0.27,0 -0.521,-0.146 -0.654,-0.381 -1.058,-1.874 -3.057,-3.037 -5.217,-3.037 -1.023,0 -2.036,0.267 -2.93,0.772 -1.881,1.062 -3.045,3.064 -3.039,5.225 0.002,0.413 -0.333,0.751 -0.747,0.752 z"
             id="path1020" />
        </g>
        <path
           inkscape:connector-curvature="0"
           d="m -61.014804,-25.25 c -2.688,0 -4.875,-2.187 -4.875,-4.875 0,-2.688 2.187,-4.875 4.875,-4.875 2.687999,0 4.874999,2.187 4.874999,4.875 0,2.688 -2.187,4.875 -4.874999,4.875 z m 0,-8.25 c -1.861,0 -3.375,1.514 -3.375,3.375 0,1.861 1.514,3.375 3.375,3.375 1.861,0 3.374999,-1.514 3.374999,-3.375 0,-1.861 -1.513999,-3.375 -3.374999,-3.375 z"
           id="path1018-3"
           sodipodi:nodetypes="ssssssssss" />
        <path
           inkscape:connector-curvature="0"
           d="m -67.764804,-17 c -0.412,0 -0.749,-0.335 -0.75,-0.748 -0.009,-2.703 1.448,-5.207 3.801,-6.536 1.124,-0.635 2.392,-0.97 3.668,-0.97 0.677,0 1.355,0.093 2.014,0.276 1.924999,0.535 3.525999,1.788 4.507999,3.528 0.099,0.174 0.124,0.376 0.07,0.569 -0.054,0.193 -0.179,0.354 -0.354,0.453 -0.112,0.063 -0.239,0.097 -0.368,0.097 -0.27,0 -0.521,-0.146 -0.654,-0.381 -1.058,-1.874 -3.056999,-3.037 -5.216999,-3.037 -1.023,0 -2.036,0.267 -2.93,0.772 -1.881,1.062 -3.045,3.064 -3.039,5.225 0.002,0.413 -0.333,0.751 -0.747,0.752 z"
           id="path1020-6" />
        <path
           inkscape:connector-curvature="0"
           d="m -54.29204,-17 c 0.412,0 0.749,-0.335 0.75,-0.748 0.009,-2.703 -1.448,-5.207 -3.801,-6.536 -1.124,-0.635 -2.392,-0.97 -3.668,-0.97 -0.677,0 -1.355,0.093 -2.014,0.276 -1.924999,0.535 -3.525999,1.788 -4.507999,3.528 -0.099,0.174 -0.124,0.376 -0.07,0.569 0.054,0.193 0.179001,0.354 0.354,0.453 0.112,0.063 0.239001,0.097 0.368001,0.097 0.27,0 0.520999,-0.146 0.654,-0.381 1.057999,-1.874 3.056999,-3.037 5.216998,-3.037 1.023,0 2.036,0.267 2.93,0.772 1.881,1.062 3.045,3.064 3.039,5.225 -0.002,0.413 0.333,0.751 0.747,0.752 z"
           id="path1020-6-7"
           style="stroke-width:1" />
      </g>
    </g>
  </g>
</svg>
